<svg width="75" height="75" viewBox="0 0 75 75" fill="none" xmlns="http://www.w3.org/2000/svg">
<path d="M56.2499 29.6875C56.2499 40.9062 45.7499 50 32.8124 50C29.0461 50.0236 25.3178 49.246 21.8749 47.7188L19.8437 48.5938L9.37495 53.125L12.9687 40.625C10.618 37.4645 9.3569 33.6263 9.37495 29.6875C9.37495 18.4688 19.8749 9.375 32.8124 9.375C44.1562 9.375 53.6249 16.375 55.7812 25.6563C56.0964 26.9767 56.2537 28.3299 56.2499 29.6875Z" stroke="#5C5C5C" stroke-width="4" stroke-linecap="round" stroke-linejoin="round"/>
<path d="M55.7813 25.6562C58.7053 27.3324 61.1475 29.7345 62.8719 32.6304C64.5963 35.5263 65.5446 38.818 65.625 42.1875C65.643 46.1263 64.3819 49.9645 62.0312 53.125L65.625 65.625L53.125 60.2188C49.6821 61.746 45.9538 62.5236 42.1875 62.5C37.5175 62.6723 32.9033 61.439 28.9421 58.9598C24.9808 56.4805 21.8549 52.8694 19.9688 48.5938" stroke="#5C5C5C" stroke-width="4" stroke-linecap="round" stroke-linejoin="round"/>
</svg>
