<svg width="80" height="80" viewBox="0 0 80 80" fill="none" xmlns="http://www.w3.org/2000/svg">
<path d="M40 70C56.5685 70 70 56.5685 70 40C70 23.4315 56.5685 10 40 10C23.4315 10 10 23.4315 10 40C10 56.5685 23.4315 70 40 70Z" stroke="#5C5C5C" stroke-width="4" stroke-linecap="round" stroke-linejoin="round"/>
<path d="M40 70C45.5228 70 50 56.5685 50 40C50 23.4315 45.5228 10 40 10C34.4772 10 30 23.4315 30 40C30 56.5685 34.4772 70 40 70Z" stroke="#5C5C5C" stroke-width="4" stroke-linecap="round" stroke-linejoin="round"/>
<path d="M64 58C59.7678 54.4458 54.6953 52.0358 49.2667 51C43.1612 49.6634 36.8388 49.6634 30.7333 51C25.3047 52.0358 20.2322 54.4458 16 58" stroke="#5C5C5C" stroke-width="4" stroke-linecap="round" stroke-linejoin="round"/>
<path d="M64 22C59.7678 25.5541 54.6953 27.9642 49.2667 29C46.2248 29.678 43.1165 30.0134 40 30C36.8835 30.0134 33.7752 29.678 30.7333 29C25.3047 27.9642 20.2322 25.5541 16 22" stroke="#5C5C5C" stroke-width="4" stroke-linecap="round" stroke-linejoin="round"/>
</svg>
