<svg width="537" height="497" viewBox="0 0 537 497" fill="none" xmlns="http://www.w3.org/2000/svg">
<g filter="url(#filter0_d)">
<path d="M177.316 489C233.114 489 278.347 483.489 278.347 476.691C278.347 469.893 233.114 464.383 177.316 464.383C121.517 464.383 76.2837 469.893 76.2837 476.691C76.2837 483.489 121.517 489 177.316 489Z" fill="#92E3A9"/>
<path opacity="0.5" d="M177.316 489C233.114 489 278.347 483.489 278.347 476.691C278.347 469.893 233.114 464.383 177.316 464.383C121.517 464.383 76.2837 469.893 76.2837 476.691C76.2837 483.489 121.517 489 177.316 489Z" fill="white"/>
<path d="M197.468 71.2046C197.468 71.2046 189.65 65.0502 180.686 68.1204C171.721 71.1906 164.924 86.1629 162.504 98.3314C160.085 110.5 150.784 119.725 153.022 133.996C155.26 148.267 171.441 150.496 190.979 152.599C210.517 154.702 221.118 152.319 230.32 139.449C239.523 126.58 235.621 110.921 230.181 97.0697C224.74 83.2189 215.677 70.3634 208.139 67.9802C200.601 65.597 197.468 71.2046 197.468 71.2046Z" fill="#263238" stroke="#263238" stroke-linecap="round" stroke-linejoin="round"/>
<path d="M165.162 144.398C166.481 144.993 167.853 145.462 169.26 145.8" stroke="white" stroke-linecap="round" stroke-linejoin="round"/>
<path d="M195.51 81.1719C192.324 88.3081 188.285 95.0303 183.483 101.191C175.483 111.495 157.791 121.224 156.659 132.033C156.476 133.48 156.603 134.949 157.03 136.344C157.456 137.738 158.174 139.026 159.134 140.122" stroke="white" stroke-linecap="round" stroke-linejoin="round"/>
<path d="M227.971 132.861C227.393 134.218 226.651 135.498 225.761 136.674" stroke="white" stroke-linecap="round" stroke-linejoin="round"/>
<path d="M221.244 105.776C221.244 105.776 230.237 116.178 229.37 127.281" stroke="white" stroke-linecap="round" stroke-linejoin="round"/>
<path d="M193.804 75.4386C190.299 75.081 186.76 75.5702 183.482 76.8654C180.205 78.1605 177.284 80.2239 174.966 82.8827C174.644 83.2472 174.35 83.6117 174.07 83.9762" stroke="white" stroke-linecap="round" stroke-linejoin="round"/>
<path d="M142.211 339.684L140.463 366.656C140.463 366.656 133.023 402.84 130.673 417.756C128.324 432.672 124.016 455.355 123.233 455.355C122.45 455.355 109.611 463.136 105.499 469.486C101.387 475.837 106.604 478.528 112.31 476.496C118.016 474.463 125.764 468.715 128.296 461.888C130.827 455.061 132.086 452.523 132.253 451.416C132.421 450.308 159.483 377.479 162.169 369.699C164.854 361.918 170.56 339.067 170.56 339.067L183.86 293.842C183.86 293.842 198.098 340.343 198.265 342.404C198.433 344.464 212.978 463.318 213.65 467.762C214.321 472.206 214.125 475.374 216.81 476.327C219.496 477.281 225.831 477.281 229.16 477.281C232.488 477.281 244.04 479.033 249.732 477.603C255.424 476.173 256.068 475.22 252.11 472.36C248.152 469.5 226.167 467.678 224.139 459.35C223.971 458.72 223.817 336.375 223.817 336.375C223.817 336.375 221.915 295.916 218.754 284.505H145.61L142.211 339.684Z" fill="white" stroke="#263238" stroke-linecap="round" stroke-linejoin="round"/>
<path d="M112.296 476.467C117.988 474.392 125.75 468.687 128.282 461.859L128.813 460.457C125.583 463.906 120.422 468.701 120.422 468.701C120.106 467.074 119.4 465.549 118.366 464.257C117.915 463.758 117.337 463.391 116.694 463.196C116.051 463.001 115.367 462.985 114.716 463.149L120.31 456.981C116.114 459.588 108.562 464.915 105.597 469.5C101.36 475.822 106.562 478.528 112.296 476.467Z" fill="#263238" stroke="#263238" stroke-linecap="round" stroke-linejoin="round"/>
<path d="M252.012 472.331C249.299 470.383 238.152 468.911 230.712 465.504C230.405 465.766 230.165 466.097 230.013 466.471C229.541 467.815 229.171 469.193 228.908 470.593L213.524 467.298V467.733C214.153 472.177 213.999 475.345 216.685 476.299C219.37 477.252 225.705 477.252 229.034 477.252C232.362 477.252 243.914 479.004 249.607 477.574C255.299 476.144 256.026 475.247 252.012 472.331Z" fill="#263238" stroke="#263238" stroke-linecap="round" stroke-linejoin="round"/>
<path d="M163.526 218.7C163.526 218.7 156.267 222.05 147.484 237.864C137.876 255.121 139.526 264.71 139.387 285.528C139.247 306.347 138.827 340.904 138.827 340.904C138.827 340.904 165.4 348.039 184.462 346.918C203.524 345.796 227.705 341.464 227.705 341.464C227.705 341.464 222.545 270.977 217.664 250.705C212.783 230.434 209.846 221.265 209.846 221.265C200.412 222.578 190.853 222.719 181.385 221.686C165.204 220.102 163.526 218.7 163.526 218.7Z" fill="#263238" stroke="#263238" stroke-linecap="round" stroke-linejoin="round"/>
<path d="M194.098 281.042C194.825 283.439 195.497 285.864 196.084 288.289" stroke="white" stroke-linecap="round" stroke-linejoin="round"/>
<path d="M177.245 241.368C182.879 251.788 187.714 262.624 191.706 273.78" stroke="white" stroke-linecap="round" stroke-linejoin="round"/>
<path d="M341.688 205.297C340.849 204.736 327.101 202.577 327.101 202.577L324.415 201.47C324.415 201.47 341.058 202.801 341.198 202.1C341.338 201.399 341.897 200.558 340.779 200.418C339.66 200.278 318.248 195.918 318.248 195.918C318.248 195.918 323.688 190.759 324.388 189.638C325.087 188.516 326.052 186.273 324.933 186.273C323.814 186.273 323.534 186.974 322.01 187.955C320.486 188.937 314.472 191.32 312.793 192.708C311.115 194.096 306.108 197.741 306.108 197.741L247.956 189.722C247.956 189.722 227.537 164.487 223.104 159.104C220.022 155.512 216.514 152.31 212.657 149.571C208.377 147.679 208.461 150.847 208.461 150.847L217.398 190.661C217.398 190.661 240.516 204.47 241.943 204.47C243.369 204.47 305.829 206.544 305.829 206.544C305.829 206.544 310.024 208.507 312.654 210.175C315.283 211.844 332.052 217.185 332.052 217.185C332.052 217.185 333.17 216.624 331.912 215.643C330.653 214.662 322.569 210.75 322.569 210.75L339.352 214.395C339.352 214.395 340.331 213.694 339.912 212.993C339.492 212.292 324.527 206.558 324.527 206.558L341.31 207.4C341.31 207.4 342.513 205.858 341.688 205.297Z" fill="white" stroke="#263238" stroke-linecap="round" stroke-linejoin="round"/>
<path d="M244.446 185.39C238.418 177.946 226.377 163.085 223.104 159.104C220.022 155.512 216.514 152.31 212.657 149.571C208.377 147.679 208.461 150.847 208.461 150.847L217.398 190.661C217.398 190.661 227.831 196.885 235.104 200.979L244.446 185.39Z" fill="white" stroke="#263238" stroke-linecap="round" stroke-linejoin="round"/>
<path d="M182.644 146.165C182.644 146.165 170.504 146.726 163.064 154.983C155.624 163.24 156.505 181.409 159.582 192.315C162.658 203.222 166.574 209.236 165.721 213.022C164.868 216.807 161.819 218.054 163.484 221.545C165.148 225.036 174.784 228.821 191.804 228.26C208.825 227.7 212.042 224.055 212.181 220.858C212.321 217.662 211.063 214.984 211.482 213.022C211.902 211.059 224.181 200.152 224.181 188.124C224.181 176.095 218.88 171.904 217.622 163.226C216.363 154.548 216.783 153.3 211.622 149.515C206.461 145.73 189.483 143.782 182.644 146.165Z" fill="white" stroke="#263238" stroke-linecap="round" stroke-linejoin="round"/>
<path d="M177.133 187.856C173.076 191.26 168.573 194.09 163.749 196.268" stroke="#263238" stroke-linecap="round" stroke-linejoin="round"/>
<path d="M178.476 189.259C178.476 189.259 175.469 198.988 168.099 204.358" stroke="#263238" stroke-linecap="round" stroke-linejoin="round"/>
<path d="M208.601 154.969L210 168.399L204.126 161.543L208.601 154.969Z" fill="white" stroke="#263238" stroke-linecap="round" stroke-linejoin="round"/>
<path d="M200.783 169.521L208.601 154.969L201.482 147.286L200.783 169.521Z" fill="white" stroke="#263238" stroke-linecap="round" stroke-linejoin="round"/>
<path d="M185.72 122.388C186.939 127.237 187.546 132.22 187.525 137.22C187.484 140.458 187.156 143.686 186.546 146.865L200.783 169.52L204.825 148.492L207.482 133.94C207.482 133.94 191.301 133.015 185.72 122.388Z" fill="white" stroke="#263238" stroke-linecap="round" stroke-linejoin="round"/>
<path d="M199.944 157.352L200.783 169.521L196.602 162.946L199.944 157.352Z" fill="white" stroke="#263238" stroke-linecap="round" stroke-linejoin="round"/>
<path d="M181.805 146.305L194.783 169.661L199.944 157.352L186.14 138.328L181.805 146.305Z" fill="white" stroke="#263238" stroke-linecap="round" stroke-linejoin="round"/>
<path d="M409.182 157.198H291.409V254.069H409.182V157.198Z" fill="#92E3A9"/>
<path opacity="0.2" d="M409.182 157.198H291.409V254.069H409.182V157.198Z" fill="black"/>
<path d="M409.182 157.198H291.409V254.069H409.182V157.198Z" stroke="#263238" stroke-linecap="round" stroke-linejoin="round"/>
<path d="M384.246 157.198H266.473V254.069H384.246V157.198Z" fill="#92E3A9" stroke="#263238" stroke-linecap="round" stroke-linejoin="round"/>
<path d="M428.58 286.678C424.804 280.677 409.182 254.069 409.182 254.069H384.26L397.084 286.678H428.58Z" fill="#92E3A9"/>
<path opacity="0.2" d="M428.58 286.678C424.804 280.677 409.182 254.069 409.182 254.069H384.26L397.084 286.678H428.58Z" fill="black"/>
<path d="M428.58 286.678C424.804 280.677 409.182 254.069 409.182 254.069H384.26L397.084 286.678H428.58Z" stroke="#263238" stroke-linecap="round" stroke-linejoin="round"/>
<path d="M247.005 286.678C250.781 280.677 266.389 254.069 266.389 254.069H291.326L278.501 286.678H247.005Z" fill="#92E3A9" stroke="#263238" stroke-linecap="round" stroke-linejoin="round"/>
<path d="M266.389 254.069L255.551 286.678H378.554L384.26 254.069H266.389Z" fill="#92E3A9" stroke="#263238" stroke-linecap="round" stroke-linejoin="round"/>
<path d="M424.343 192.245V224.685" stroke="#263238" stroke-linecap="round" stroke-linejoin="round"/>
<path d="M430.468 206.278V232.578" stroke="#263238" stroke-linecap="round" stroke-linejoin="round"/>
<path d="M253.816 224.686V244.845" stroke="#263238" stroke-linecap="round" stroke-linejoin="round"/>
<path d="M248.572 236.083V251.854" stroke="#263238" stroke-linecap="round" stroke-linejoin="round"/>
<path d="M162.407 180.988C166.58 185.727 171.424 189.826 176.784 193.157C185.175 198.19 215.943 215.671 218.363 216.653C220.782 217.634 294.263 205.606 294.263 205.606C294.263 205.606 298.458 207.568 301.102 209.237C303.745 210.905 320.5 216.246 320.5 216.246C320.5 216.246 321.618 215.685 320.36 214.718C319.101 213.751 311.017 209.811 311.017 209.811L327.8 213.456C327.8 213.456 328.779 212.755 328.359 212.054C327.94 211.353 312.975 205.62 312.975 205.62L329.758 206.461C329.758 206.461 331.017 204.919 330.178 204.358C329.339 203.797 312.15 199.872 312.15 199.872C312.15 199.872 330.429 198.33 330.569 197.629C330.709 196.928 331.268 196.101 330.15 195.961C329.031 195.82 306.15 193.577 306.15 193.577C306.15 193.577 312.15 189.806 312.849 188.685C313.549 187.563 314.528 185.32 313.409 185.32C312.29 185.32 312.01 186.021 310.486 187.002C308.961 187.984 302.948 190.367 301.269 191.755C299.591 193.143 294.57 196.802 294.57 196.802L227.328 196.942L185.581 163.927" fill="white"/>
<path d="M162.407 180.988C166.58 185.727 171.424 189.826 176.784 193.157C185.175 198.19 215.943 215.671 218.363 216.653C220.782 217.634 294.263 205.606 294.263 205.606C294.263 205.606 298.458 207.568 301.102 209.237C303.745 210.905 320.5 216.246 320.5 216.246C320.5 216.246 321.618 215.685 320.36 214.718C319.101 213.751 311.017 209.811 311.017 209.811L327.8 213.456C327.8 213.456 328.779 212.755 328.359 212.054C327.94 211.353 312.975 205.62 312.975 205.62L329.758 206.461C329.758 206.461 331.017 204.919 330.178 204.358C329.339 203.797 312.15 199.872 312.15 199.872C312.15 199.872 330.429 198.33 330.569 197.629C330.709 196.928 331.268 196.101 330.15 195.961C329.031 195.82 306.15 193.577 306.15 193.577C306.15 193.577 312.15 189.806 312.849 188.685C313.549 187.563 314.528 185.32 313.409 185.32C312.29 185.32 312.01 186.021 310.486 187.002C308.961 187.984 302.948 190.367 301.269 191.755C299.591 193.143 294.57 196.802 294.57 196.802L227.328 196.942L185.581 163.927" stroke="#263238" stroke-linecap="round" stroke-linejoin="round"/>
<path d="M330.122 195.96C329.017 195.82 306.122 193.577 306.122 193.577C306.122 193.577 312.122 189.806 312.821 188.684C313.521 187.563 314.5 185.32 313.381 185.32C312.262 185.32 311.982 186.021 310.458 187.002C308.933 187.983 302.92 190.367 301.241 191.755C299.563 193.142 294.542 196.801 294.542 196.801L227.3 196.942L219.845 191.012C217.048 195.932 211.818 205.157 208.419 211.241C213.65 214.157 217.608 216.33 218.405 216.652C220.782 217.634 294.304 205.605 294.304 205.605C294.304 205.605 298.5 207.568 301.143 209.236C303.787 210.905 320.541 216.246 320.541 216.246C320.541 216.246 321.66 215.685 320.402 214.718C319.143 213.75 311.059 209.811 311.059 209.811L327.842 213.456C327.842 213.456 328.821 212.755 328.401 212.054C327.982 211.353 313.017 205.619 313.017 205.619L329.8 206.461C329.8 206.461 331.059 204.918 330.219 204.358C329.38 203.797 312.15 199.872 312.15 199.872C312.15 199.872 330.429 198.329 330.569 197.629C330.709 196.928 331.24 196.1 330.122 195.96Z" fill="white" stroke="#263238" stroke-linecap="round" stroke-linejoin="round"/>
<path d="M217.524 110.64C217.762 110.35 218.077 110.133 218.432 110.013C218.788 109.894 219.17 109.877 219.534 109.965C219.899 110.053 220.231 110.241 220.494 110.509C220.757 110.777 220.939 111.114 221.02 111.481C221.254 113.002 221.176 114.554 220.791 116.044C220.406 117.533 219.723 118.929 218.782 120.145C217.244 121.687 215.845 122.107 215.845 120.145C216.234 116.949 216.794 113.776 217.524 110.64Z" fill="white" stroke="#263238" stroke-linecap="round" stroke-linejoin="round"/>
<path d="M200.349 86.1353C199.859 92.9578 196.947 99.3786 192.14 104.234C187.662 108.648 182.598 112.422 177.091 115.449C177.091 115.449 177.903 119.837 179.553 121.211C181.203 122.585 184.476 122.318 184.476 122.318C186.378 127.533 189.473 132.228 193.511 136.029C200.07 142.057 207.734 141.51 212.111 132.468C216.489 123.426 218.685 114.356 218.139 109.141L217.594 103.925C217.594 103.925 203.356 96.0047 200.349 86.1353Z" fill="white" stroke="#263238" stroke-linecap="round" stroke-linejoin="round"/>
<path d="M199.524 113.248C200.219 113.248 200.783 112.244 200.783 111.005C200.783 109.766 200.219 108.762 199.524 108.762C198.829 108.762 198.266 109.766 198.266 111.005C198.266 112.244 198.829 113.248 199.524 113.248Z" fill="#263238"/>
<path d="M206.363 131.15C207.058 131.15 207.622 130.146 207.622 128.907C207.622 127.668 207.058 126.664 206.363 126.664C205.668 126.664 205.104 127.668 205.104 128.907C205.104 130.146 205.668 131.15 206.363 131.15Z" fill="#263238"/>
<path d="M211.664 113.248C212.359 113.248 212.922 112.244 212.922 111.005C212.922 109.766 212.359 108.762 211.664 108.762C210.969 108.762 210.405 109.766 210.405 111.005C210.405 112.244 210.969 113.248 211.664 113.248Z" fill="#263238"/>
<path d="M209.146 108.621C208.666 110.301 208.523 112.059 208.727 113.794C209.146 116.178 211.104 120.229 209.426 120.93C208.66 121.28 207.813 121.413 206.977 121.314C206.141 121.215 205.348 120.889 204.685 120.369" stroke="#263238" stroke-linecap="round" stroke-linejoin="round"/>
<path d="M195.888 106.953C195.888 106.953 196.559 102.664 202.168 103.154" stroke="#263238" stroke-linecap="round" stroke-linejoin="round"/>
<path d="M210.909 104.472C210.909 104.472 216.139 100.266 217.832 107.962" stroke="#263238" stroke-linecap="round" stroke-linejoin="round"/>
</g>
<defs>
<filter id="filter0_d" x="72.2837" y="66.7622" width="362.684" height="430.238" filterUnits="userSpaceOnUse" color-interpolation-filters="sRGB">
<feFlood flood-opacity="0" result="BackgroundImageFix"/>
<feColorMatrix in="SourceAlpha" type="matrix" values="0 0 0 0 0 0 0 0 0 0 0 0 0 0 0 0 0 0 127 0"/>
<feOffset dy="4"/>
<feGaussianBlur stdDeviation="2"/>
<feColorMatrix type="matrix" values="0 0 0 0 0 0 0 0 0 0 0 0 0 0 0 0 0 0 0.25 0"/>
<feBlend mode="normal" in2="BackgroundImageFix" result="effect1_dropShadow"/>
<feBlend mode="normal" in="SourceGraphic" in2="effect1_dropShadow" result="shape"/>
</filter>
</defs>
</svg>
