<svg width="264" height="264" viewBox="0 0 264 264" fill="none" xmlns="http://www.w3.org/2000/svg">
<path d="M197.419 187.831C197.419 187.831 213.613 183.607 226.285 162.487C240.488 138.811 234.395 97.5005 215.477 77.4313C197.926 58.8193 159.071 55.5457 136.525 64.6273C115.22 73.2125 98.8574 93.8468 85.8369 96.661C72.8165 99.4753 56.6174 94.9028 39.0192 114.259C21.4209 133.616 25.2912 177.271 45.3552 191.701C65.4192 206.131 94.9872 189.235 120.685 177.619C146.383 166.003 150.601 191.347 197.419 187.831Z" fill="#92E3A9"/>
<g opacity="0.7">
<path opacity="0.7" d="M197.419 187.831C197.419 187.831 213.613 183.607 226.285 162.487C240.488 138.811 234.395 97.5005 215.477 77.4313C197.926 58.8193 159.071 55.5457 136.525 64.6273C115.22 73.2125 98.8574 93.8468 85.8369 96.661C72.8165 99.4753 56.6174 94.9028 39.0192 114.259C21.4209 133.616 25.2912 177.271 45.3552 191.701C65.4192 206.131 94.9872 189.235 120.685 177.619C146.383 166.003 150.601 191.347 197.419 187.831Z" fill="white"/>
</g>
<path d="M192.055 145.2V145.168C187.746 143.737 181.136 144.223 180.154 144.809C179.109 145.508 178.212 146.405 177.514 147.449C175.193 150.742 173.529 154.451 172.614 158.374L125.754 162.73C124.027 159.002 121.424 155.66 118.81 153.643C118.064 153.017 117.203 152.542 116.276 152.244C115.868 152.195 115.455 152.209 115.051 152.286C113.351 147.36 110.943 142.608 107.934 142.307C101.598 141.673 90.5414 143.796 87.5265 149.942C84.5116 156.087 83.5665 171.431 83.5665 171.431L81.4545 173.543C79.9141 170.542 77.7716 167.891 75.1607 165.755C74.4164 165.126 73.5551 164.651 72.6263 164.356C72.0983 164.208 69.9863 164.535 67.774 165.259C67.6842 165.174 67.5997 165.09 67.5047 165.011C65.3927 163.242 61.0631 162.276 58.6449 166.785C56.2266 171.294 59.1306 179.832 60.5774 181.764C61.28 182.751 62.161 183.598 63.1751 184.262C64.8805 188.486 67.9271 193.871 72.6157 194.119C74.2217 194.206 75.8275 193.946 77.3243 193.357C78.821 192.769 80.1737 191.865 81.2908 190.708C84.3321 187.54 84.6594 183.089 83.5137 178.733L84.0047 178.015C84.0047 178.015 85.0977 179.573 89.2847 178.945C90.4985 178.82 91.6492 178.342 92.5953 177.572C94.5594 182.582 97.7327 187.604 102.775 188.354C104.939 188.685 107.149 188.546 109.255 187.946C111.36 187.347 113.312 186.301 114.977 184.879C115.945 184.043 116.789 183.075 117.485 182.002C120.309 181.846 122.968 180.627 124.93 178.591C126.685 176.719 127.689 174.266 127.75 171.7L133.985 170.972C137.9 172.718 142.17 173.517 146.451 173.306C150.551 173.042 154.431 171.362 157.428 168.554L171.637 167.339C171.874 172.846 173.854 177.899 178.501 180.682C180.28 181.743 182.268 182.407 184.328 182.627C186.388 182.846 188.471 182.617 190.434 181.954C196.986 179.758 198.538 170.021 198.961 164.102C199.616 154.598 196.585 146.546 192.055 145.2Z" fill="#263238" stroke="#263238" stroke-width="0.75" stroke-linecap="round" stroke-linejoin="round"/>
<path d="M105.304 185.296C104.759 185.993 104.064 186.558 103.271 186.949" stroke="white" stroke-width="0.5" stroke-linecap="round" stroke-linejoin="round"/>
<path d="M107.865 172.783C107.865 172.783 108.493 179.647 106.154 184.003" stroke="white" stroke-width="0.5" stroke-linecap="round" stroke-linejoin="round"/>
<path d="M109.718 180.365C109.122 183.005 107.934 185.566 105.632 186.701" stroke="white" stroke-width="0.5" stroke-linecap="round" stroke-linejoin="round"/>
<path d="M112.585 172.26C112.585 172.26 113.641 183.67 107.997 186.426" stroke="white" stroke-width="0.5" stroke-linecap="round" stroke-linejoin="round"/>
<path d="M114.951 171.996C114.951 171.996 116.007 183.411 110.357 186.162" stroke="white" stroke-width="0.5" stroke-linecap="round" stroke-linejoin="round"/>
<path d="M186.183 179.995C185.577 180.761 184.823 181.399 183.966 181.87" stroke="white" stroke-width="0.5" stroke-linecap="round" stroke-linejoin="round"/>
<path d="M190.428 165.745C190.428 165.745 190.09 173.554 187.192 178.522" stroke="white" stroke-width="0.5" stroke-linecap="round" stroke-linejoin="round"/>
<path d="M191.183 174.393C190.233 177.397 188.712 180.312 186.31 181.579" stroke="white" stroke-width="0.5" stroke-linecap="round" stroke-linejoin="round"/>
<path d="M195.117 165.164C195.117 165.164 194.552 178.173 188.654 181.289" stroke="white" stroke-width="0.5" stroke-linecap="round" stroke-linejoin="round"/>
<path d="M197.472 164.879C197.472 164.879 196.907 177.884 191.009 181.004" stroke="white" stroke-width="0.5" stroke-linecap="round" stroke-linejoin="round"/>
<path d="M74.1048 192.356C73.6555 193.044 73.063 193.628 72.3677 194.067" stroke="white" stroke-width="0.5" stroke-linecap="round" stroke-linejoin="round"/>
<path d="M74.9389 181.252C74.9389 181.252 76.4278 187.06 74.7488 191.12" stroke="white" stroke-width="0.5" stroke-linecap="round" stroke-linejoin="round"/>
<path d="M77.7004 187.488C77.4628 189.837 76.6444 192.203 74.6011 193.502" stroke="white" stroke-width="0.5" stroke-linecap="round" stroke-linejoin="round"/>
<path d="M79.3952 180.122C79.3952 180.122 81.8768 189.758 76.8291 192.931" stroke="white" stroke-width="0.5" stroke-linecap="round" stroke-linejoin="round"/>
<path d="M81.6235 179.552C81.6235 179.552 84.1103 189.188 79.0574 192.366" stroke="white" stroke-width="0.5" stroke-linecap="round" stroke-linejoin="round"/>
<path d="M99.8235 168.871C101.08 176.057 100.293 182.203 98.0759 182.599C95.8583 182.995 93.0335 177.472 91.7768 170.286C90.5202 163.1 91.3069 156.954 93.5298 156.558C95.7527 156.162 98.5669 161.679 99.8235 168.871Z" fill="#92E3A9" stroke="#263238" stroke-linecap="round" stroke-linejoin="round"/>
<path d="M98.7042 169.023C99.0527 171.78 98.7306 174.087 97.9755 174.182C97.2205 174.277 96.3335 172.123 95.985 169.367C95.6365 166.61 95.985 164.298 96.7136 164.203C97.4423 164.108 98.3557 166.267 98.7042 169.023Z" fill="#92E3A9" stroke="#263238" stroke-linecap="round" stroke-linejoin="round"/>
<path d="M93.4084 162.434C93.4833 161.509 93.6298 160.591 93.8467 159.688" stroke="#263238" stroke-width="0.75" stroke-linecap="round" stroke-linejoin="round"/>
<path d="M96.909 180.006C95.4479 177.081 94.4029 173.965 93.8043 170.75C93.4067 168.476 93.2457 166.167 93.3239 163.86" stroke="#263238" stroke-width="0.75" stroke-linecap="round" stroke-linejoin="round"/>
<path d="M68.7499 190.227C70.3461 189.785 70.479 185.237 69.0468 180.069C67.6146 174.901 65.1596 171.07 63.5634 171.513C61.9673 171.955 61.8344 176.503 63.2666 181.671C64.6988 186.839 67.1537 190.669 68.7499 190.227Z" fill="#92E3A9" stroke="#263238" stroke-linecap="round" stroke-linejoin="round"/>
<path d="M68.5237 180.275C69.0253 182.239 68.9989 183.939 68.4603 184.077C67.9218 184.214 67.0875 182.73 66.5859 180.771C66.0843 178.812 66.1107 177.102 66.6493 176.97C67.1878 176.838 68.0221 178.311 68.5237 180.275Z" stroke="#263238" stroke-width="0.75" stroke-linecap="round" stroke-linejoin="round"/>
<path d="M64.0991 175.983C64.0696 175.306 64.0926 174.628 64.1677 173.955" stroke="#263238" stroke-width="0.75" stroke-linecap="round" stroke-linejoin="round"/>
<path d="M68.2124 188.385C66.8921 186.399 65.8559 184.238 65.1341 181.965C64.6407 180.355 64.3152 178.699 64.1626 177.022" stroke="#263238" stroke-width="0.75" stroke-linecap="round" stroke-linejoin="round"/>
<path d="M181.933 91.8721C176.368 80.3881 173.965 79.3902 170.264 79.2001C166.563 79.0101 157.825 77.9224 148.088 79.48C148.088 79.48 120.928 79.0048 99.9135 91.7349C77.9751 105.025 67.2989 116.699 65.8047 122.75C64.3105 128.8 59.21 144.567 56.7917 153.606C54.3735 162.645 52.7261 170.608 55.8097 177.926C57.6735 182.35 59.6588 183.681 62.209 183.66C61.8188 182.96 61.4749 182.235 61.1794 181.49C58.645 175.212 58.9513 166.23 61.8447 165.65C64.7381 165.069 66.4647 171.083 68.2124 177.64C68.5593 179.086 69.0292 180.499 69.6169 181.864C73.9412 180.233 80.8685 176.584 90.0769 172.793C89.2027 167.034 89.1831 161.177 90.0188 155.412C91.381 146.399 97.1415 144.408 99.6495 149.894C101.725 154.414 102.495 164.53 102.701 167.941C106.397 166.669 109.491 165.829 111.397 165.713C111.397 165.713 142.909 158.596 166.135 158.025C189.362 157.455 200.983 156.901 200.983 156.901C200.983 156.901 187.498 103.335 181.933 91.8721Z" fill="white"/>
<path d="M107.675 147.28C107.675 147.28 104.481 151.652 100.594 152.587C101.967 157.624 102.532 165.079 102.706 167.899C106.006 166.763 108.81 165.966 110.732 165.734C111.012 164.087 111.181 163.036 111.181 163.036L107.675 147.28Z" fill="#92E3A9"/>
<path opacity="0.2" d="M68.3495 178.116C69.8174 178.263 70.7942 178.897 73.7774 178.153C79.0574 176.838 75.261 166.647 84.0206 162.487C85.721 161.629 87.5714 161.109 89.4695 160.956C89.5483 159.091 89.7245 157.232 89.9975 155.385C90.2301 153.572 90.7655 151.81 91.5815 150.174C89.1897 149.44 88.7567 148.738 84.6806 150.675C75.9158 154.836 77.2305 165.57 71.9769 166.885C67.7846 167.941 67.5522 166.257 64.3684 167.038C65.8574 169.15 67.0084 173.263 68.17 177.598C68.2598 177.794 68.302 177.936 68.3495 178.116Z" fill="#92E3A9"/>
<g style="mix-blend-mode:multiply">
<g style="mix-blend-mode:multiply" opacity="0.2">
<path d="M59.7273 169.092C57.2721 170.782 55.8096 173.316 54.9753 175.455C55.2016 176.298 55.4803 177.127 55.8096 177.936C57.6734 182.361 59.6587 183.691 62.2089 183.67C61.8188 182.97 61.4748 182.245 61.1793 181.5C59.5689 177.503 59.136 172.419 59.7273 169.092Z" fill="#92E3A9"/>
</g>
</g>
<g style="mix-blend-mode:multiply" opacity="0.2">
<path d="M170.264 79.2002L169.309 79.1421C130.802 88.9946 115.136 135.406 109.745 157.772C110.035 159.995 110.352 162.175 110.695 164.298C111.35 164.171 110.896 165.713 111.398 165.687C111.398 165.687 142.909 158.569 166.135 157.999C189.362 157.429 200.983 156.874 200.983 156.874C200.983 156.874 187.498 103.335 181.933 91.8722C176.368 80.4093 173.966 79.3691 170.264 79.2002Z" fill="#92E3A9"/>
</g>
<path d="M181.933 91.8721C176.368 80.3881 173.965 79.3902 170.264 79.2001C166.563 79.0101 157.825 77.9224 148.088 79.48C148.088 79.48 120.928 79.0048 99.9135 91.7349C77.9751 105.025 67.2989 116.699 65.8047 122.75C64.3105 128.8 59.21 144.567 56.7917 153.606C54.3735 162.645 52.7261 170.608 55.8097 177.926C57.6735 182.35 59.6588 183.681 62.209 183.66C61.8188 182.96 61.4749 182.235 61.1794 181.49C58.645 175.212 58.9513 166.23 61.8447 165.65C64.7381 165.069 66.4647 171.083 68.2124 177.64C68.5593 179.086 69.0292 180.499 69.6169 181.864C73.9412 180.233 80.8685 176.584 90.0769 172.793C89.2027 167.034 89.1831 161.177 90.0188 155.412C91.381 146.399 97.1415 144.408 99.6495 149.894C101.725 154.414 102.495 164.53 102.701 167.941C106.397 166.669 109.491 165.829 111.397 165.713C111.397 165.713 142.909 158.596 166.135 158.025C189.362 157.455 200.983 156.901 200.983 156.901C200.983 156.901 187.498 103.335 181.933 91.8721Z" stroke="#263238" stroke-linecap="round" stroke-linejoin="round"/>
<path opacity="0.2" d="M66.6704 149.826C67.0329 150.127 67.474 150.319 67.9418 150.378C68.4096 150.437 68.8845 150.36 69.3104 150.158C70.9736 149.493 71.1426 146.99 71.1426 146.99L73.6347 146.827L74.1363 139.007L68.6451 141.166C68.6451 141.166 67.172 148.828 66.6704 149.826Z" fill="#92E3A9"/>
<path d="M59.4684 172.693C57.8917 173.531 56.4009 174.521 55.0173 175.65C55.2363 176.423 55.5007 177.183 55.8093 177.925C57.6732 182.35 59.6585 183.681 62.2087 183.659C61.8185 182.959 61.4746 182.234 61.1791 181.489C60.0967 178.68 59.5176 175.703 59.4684 172.693Z" fill="#263238" stroke="#263238" stroke-width="0.75" stroke-linecap="round" stroke-linejoin="round"/>
<path d="M67.8795 168.332C67.7366 168.331 67.5965 168.292 67.4739 168.219C67.3513 168.145 67.2506 168.04 67.1825 167.915C67.0864 167.732 67.0657 167.52 67.125 167.322C67.1842 167.125 67.3186 166.958 67.4993 166.859C67.626 166.79 77.9009 160.423 86.4123 155.898C86.5041 155.849 86.6047 155.818 86.7083 155.808C86.8119 155.798 86.9164 155.809 87.016 155.839C87.1155 155.87 87.2081 155.919 87.2884 155.986C87.3687 156.052 87.4352 156.133 87.4841 156.225C87.533 156.317 87.5633 156.417 87.5733 156.521C87.5833 156.625 87.5728 156.729 87.5424 156.829C87.512 156.928 87.4623 157.021 87.3961 157.101C87.33 157.181 87.2486 157.248 87.1567 157.297C78.6507 161.816 68.3811 168.179 68.2543 168.247C68.1388 168.307 68.0096 168.337 67.8795 168.332Z" fill="#263238" stroke="#263238" stroke-miterlimit="10"/>
<path d="M81.3119 115.405L80.9476 124.471C80.8684 125.706 81.5865 126.303 82.5316 125.77L97.1308 116.266C97.6675 115.891 98.1003 115.387 98.3885 114.8C98.6766 114.212 98.8107 113.561 98.7782 112.908L98.6884 102.796C98.5828 101.878 97.9598 101.503 97.1942 101.899C94.4486 103.319 89.1475 108.124 82.8115 112.596C82.3821 112.936 82.0275 113.361 81.7695 113.845C81.5115 114.328 81.3558 114.859 81.3119 115.405Z" fill="#92E3A9" stroke="#263238" stroke-linecap="round" stroke-linejoin="round"/>
<path d="M91.1748 112.85L98.3081 114.592" stroke="#263238" stroke-linecap="round" stroke-linejoin="round"/>
<path d="M81.4175 125.812L85.821 116.086" stroke="#263238" stroke-linecap="round" stroke-linejoin="round"/>
<path d="M81.3962 115.104L87.8695 115.912C88.5401 116.012 89.3743 115.458 89.9815 114.497L98.4295 102.4" stroke="#263238" stroke-linecap="round" stroke-linejoin="round"/>
<path d="M117.538 98.5621L119.037 121.266C119.076 121.921 119.248 122.562 119.543 123.149C119.838 123.735 120.249 124.256 120.751 124.678C121.254 125.101 121.837 125.416 122.466 125.606C123.094 125.795 123.755 125.855 124.407 125.78L174.842 119.233C175.537 119.153 176.206 118.923 176.803 118.559C177.4 118.195 177.911 117.706 178.301 117.125C178.691 116.544 178.949 115.885 179.06 115.195C179.17 114.504 179.129 113.798 178.939 113.124L172.571 90.6104C172.27 89.5405 171.608 88.6076 170.698 87.9697C169.788 87.3317 168.685 87.028 167.576 87.1098C159.403 87.7117 139.798 89.4699 121.292 93.5936C120.181 93.846 119.195 94.4831 118.508 95.3923C117.821 96.3015 117.477 97.4242 117.538 98.5621Z" fill="#92E3A9" stroke="#263238" stroke-linecap="round" stroke-linejoin="round"/>
<path d="M155.026 105.6L178.052 116.509" stroke="#263238" stroke-linecap="round" stroke-linejoin="round"/>
<path d="M120.949 124.782L140.395 107.379" stroke="#263238" stroke-linecap="round" stroke-linejoin="round"/>
<path d="M117.707 97.9651L145.612 109.439C146.659 109.866 147.809 109.981 148.92 109.768C150.032 109.555 151.058 109.025 151.874 108.24L171.763 89.459" stroke="#263238" stroke-linecap="round" stroke-linejoin="round"/>
<path d="M173.435 122.447C178.175 122.33 181.925 118.459 181.81 113.8C181.696 109.142 177.76 105.46 173.02 105.577C168.28 105.694 164.53 109.565 164.645 114.223C164.76 118.881 168.695 122.563 173.435 122.447Z" fill="#263238" stroke="#263238" stroke-width="0.75" stroke-linecap="round" stroke-linejoin="round"/>
<path d="M172.302 118.04H172.276C172.109 118.04 171.945 118.001 171.796 117.926C171.647 117.851 171.519 117.741 171.42 117.607L168.047 112.95C167.882 112.723 167.814 112.44 167.858 112.163C167.902 111.887 168.055 111.639 168.281 111.474C168.508 111.31 168.791 111.242 169.068 111.286C169.345 111.33 169.593 111.482 169.757 111.709L172.276 115.183L178.295 106.867C178.46 106.641 178.707 106.488 178.984 106.444C179.261 106.4 179.544 106.468 179.771 106.632C179.998 106.797 180.15 107.045 180.194 107.322C180.238 107.598 180.17 107.881 180.006 108.108L173.142 117.612C173.044 117.744 172.918 117.851 172.772 117.925C172.627 117.999 172.466 118.038 172.302 118.04Z" fill="white" stroke="#263238" stroke-linecap="round" stroke-linejoin="round"/>
<path d="M140.411 140.796C140.411 140.796 158.363 137.354 170.665 137.597L171.404 140.554C171.404 140.554 145.575 141.778 140.654 144.25L140.411 140.796Z" fill="#263238" stroke="#263238" stroke-width="0.75" stroke-linecap="round" stroke-linejoin="round"/>
<path d="M140.654 144.239L141.182 147.196C141.236 147.526 141.418 147.821 141.687 148.018C141.957 148.215 142.293 148.299 142.623 148.252C147.127 147.608 162.935 145.438 171.135 145.639C171.337 145.645 171.538 145.603 171.721 145.517C171.904 145.431 172.064 145.303 172.188 145.144C172.312 144.984 172.396 144.797 172.434 144.599C172.473 144.401 172.464 144.196 172.408 144.002L171.426 140.564" stroke="#263238" stroke-linecap="round" stroke-linejoin="round"/>
<path d="M75.145 139.017L75.0447 126.82L75.6519 114.28C75.6564 114.16 75.6246 114.042 75.5608 113.94C75.4969 113.839 75.4038 113.759 75.2937 113.711C75.1837 113.663 75.0617 113.649 74.9438 113.672C74.8259 113.694 74.7175 113.752 74.6328 113.837C72.3624 116.16 68.4763 119.677 67.3253 122.559C65.8311 126.292 64.0623 144.667 64.0623 144.667L75.145 139.017Z" fill="#263238" stroke="#263238" stroke-width="0.75" stroke-linecap="round" stroke-linejoin="round"/>
<path d="M61.0842 136.567H59.3154C58.4143 136.567 57.6838 137.298 57.6838 138.199V147.312C57.6838 148.213 58.4143 148.944 59.3154 148.944H61.0842C61.9852 148.944 62.7157 148.213 62.7157 147.312V138.199C62.7157 137.298 61.9852 136.567 61.0842 136.567Z" fill="#263238" stroke="#263238" stroke-width="0.75" stroke-linecap="round" stroke-linejoin="round"/>
<path d="M62.1982 128.056C63.0355 128.217 63.8533 128.466 64.6376 128.8C65.2879 129.12 65.879 129.549 66.3853 130.068L69.0253 126.578C69.0253 126.578 65.155 124.957 64.4211 123.969L63.6925 122.977L62.1982 128.056Z" fill="white"/>
<g style="mix-blend-mode:multiply" opacity="0.5">
<path d="M64.4158 123.969L63.7347 123.024L63.6555 123.077L62.1982 128.04C62.1982 128.04 62.4781 128.093 62.8741 128.188L66.6493 125.453C65.8242 125.092 65.0684 124.59 64.4158 123.969Z" fill="#92E3A9"/>
</g>
<path d="M62.1982 128.056C63.0355 128.217 63.8533 128.466 64.6376 128.8C65.2879 129.12 65.879 129.549 66.3853 130.068L69.0253 126.578C69.0253 126.578 65.155 124.957 64.4211 123.969L63.6925 122.977L62.1982 128.056Z" stroke="#263238" stroke-width="0.75" stroke-linecap="round" stroke-linejoin="round"/>
<path d="M67.7739 125.094L64.5479 129.207L64.9861 130.606L69.9018 125.5L67.7739 125.094Z" fill="#92E3A9" stroke="#263238" stroke-linecap="round" stroke-linejoin="round"/>
<path d="M62.6101 113.473C60.4295 111.783 54.7482 112.86 53.6341 116.862C52.9477 119.328 53.3279 123.024 53.3279 123.024L59.8012 121.651L60.3292 122.449C61.3852 124.033 63.6714 122.977 64.2628 122.449C64.5849 122.169 64.5637 121.345 64.4793 120.664L64.738 120.606C64.738 120.606 64.7855 115.167 62.6101 113.473Z" fill="#263238" stroke="#263238" stroke-width="0.75" stroke-linecap="round" stroke-linejoin="round"/>
<path d="M60.1919 121.166C57.3507 120.849 54.4747 121.123 51.7439 121.968C47.5199 123.383 46.8704 124.608 49.8959 124.534C52.9213 124.461 60.1919 121.166 60.1919 121.166Z" fill="#263238" stroke="#263238" stroke-width="0.75" stroke-linecap="round" stroke-linejoin="round"/>
<path d="M54.9753 119.629C55.4681 119.629 55.8676 119.083 55.8676 118.41C55.8676 117.736 55.4681 117.19 54.9753 117.19C54.4825 117.19 54.083 117.736 54.083 118.41C54.083 119.083 54.4825 119.629 54.9753 119.629Z" fill="#92E3A9"/>
<path d="M75.0445 126.821C75.0445 126.821 69.2629 125.353 67.4835 126.704C65.7042 128.056 65.2501 130.289 65.8203 132.998C66.3906 135.707 67.7792 142.829 67.7792 142.829L75.1448 139.017L75.0445 126.821Z" fill="#263238" stroke="#263238" stroke-width="0.75" stroke-linecap="round" stroke-linejoin="round"/>
<path d="M65.8677 141.694C65.8677 141.694 65.5562 144.429 65.1919 144.815C64.8276 145.2 55.218 137.127 54.6319 136.367C54.0458 135.606 54.4471 132.892 54.6319 132.042C54.8167 131.192 54.5052 130.728 53.5759 131.314C52.6466 131.9 52.8948 134.339 52.8948 134.339C52.8948 134.339 50.0594 133.658 49.4945 133.579C48.9295 133.5 48.4385 134.202 48.5229 134.762C48.6074 135.321 49.3519 135.369 49.3519 135.369C49.1614 136.179 49.2147 137.028 49.505 137.808C50.0013 138.832 50.561 139.477 51.617 139.73C52.7065 139.9 53.8096 139.967 54.9117 139.931C54.9117 139.931 59.8221 144.609 61.2477 146.356C62.6733 148.104 65.6777 150.48 67.1719 150.052C68.6661 149.625 70.0917 142.164 70.0917 142.164L65.8677 141.694Z" fill="white"/>
<g style="mix-blend-mode:multiply" opacity="0.5">
<path d="M65.1921 144.815L68.001 145.749C68.0901 146.338 67.9656 146.94 67.65 147.446C67.3343 147.951 66.8483 148.327 66.2798 148.505C65.039 148.917 62.8108 147.507 61.2268 146.319L61.2743 146.378C62.7263 148.131 65.7042 150.501 67.1985 150.074C68.6927 149.646 70.1183 142.185 70.1183 142.185L65.8679 141.657C65.8679 141.657 65.5564 144.429 65.1921 144.815Z" fill="#92E3A9"/>
</g>
<path d="M65.8677 141.694C65.8677 141.694 65.5562 144.429 65.1919 144.815C64.8276 145.2 55.218 137.127 54.6319 136.367C54.0458 135.606 54.4471 132.892 54.6319 132.042C54.8167 131.192 54.5052 130.728 53.5759 131.314C52.6466 131.9 52.8948 134.339 52.8948 134.339C52.8948 134.339 50.0594 133.658 49.4945 133.579C48.9295 133.5 48.4385 134.202 48.5229 134.762C48.6074 135.321 49.3519 135.369 49.3519 135.369C49.1614 136.179 49.2147 137.028 49.505 137.808C50.0013 138.832 50.561 139.477 51.617 139.73C52.7065 139.9 53.8096 139.967 54.9117 139.931C54.9117 139.931 59.8221 144.609 61.2477 146.356C62.6733 148.104 65.6777 150.48 67.1719 150.052C68.6661 149.625 70.0917 142.164 70.0917 142.164L65.8677 141.694Z" stroke="#263238" stroke-width="0.75" stroke-linecap="round" stroke-linejoin="round"/>
<path d="M56.2635 137.851L54.9119 139.952L55.6035 140.422L56.9869 138.442L56.2635 137.851Z" fill="#263238" stroke="#263238" stroke-miterlimit="10"/>
<path d="M55.799 139.83C56.0906 139.83 56.327 139.594 56.327 139.302C56.327 139.011 56.0906 138.774 55.799 138.774C55.5074 138.774 55.271 139.011 55.271 139.302C55.271 139.594 55.5074 139.83 55.799 139.83Z" fill="white" stroke="#263238" stroke-width="0.75" stroke-linecap="round" stroke-linejoin="round"/>
<path d="M54.5054 123.7C54.5054 123.7 54.8274 124.497 55.366 125.896C55.9046 127.296 58.798 130.247 60.2131 130.416C61.6281 130.585 63.323 125.442 63.5923 124.381C63.682 124.032 63.7718 123.473 63.7718 123.473C63.7718 123.473 65.5511 122.633 65.1393 121.62C64.7275 120.606 63.8932 120.141 63.4972 120.453C63.1012 120.764 63.0326 122.079 62.4412 122.089C61.8499 122.1 61.5278 121.915 61.0051 121.218C60.4823 120.521 55.0651 121.968 54.5054 123.7Z" fill="white"/>
<path opacity="0.5" d="M60.9945 121.218C60.4665 120.526 55.0651 121.973 54.5054 123.7L54.8116 124.481C56.8763 123.236 59.1201 122.315 61.4644 121.751C61.2893 121.591 61.1317 121.412 60.9945 121.218Z" fill="#92E3A9"/>
<g style="mix-blend-mode:multiply">
<g style="mix-blend-mode:multiply" opacity="0.5">
<path d="M65.0707 121.477C64.6378 120.569 63.8722 120.157 63.4867 120.453C63.2451 120.768 63.0659 121.126 62.9587 121.509C63.6601 121.43 64.3674 121.419 65.0707 121.477Z" fill="#92E3A9"/>
</g>
</g>
<path d="M54.5054 123.7C54.5054 123.7 54.8274 124.497 55.366 125.896C55.9046 127.296 58.798 130.247 60.2131 130.416C61.6281 130.585 63.323 125.442 63.5923 124.381C63.682 124.032 63.7718 123.473 63.7718 123.473C63.7718 123.473 65.5511 122.633 65.1393 121.62C64.7275 120.606 63.8932 120.141 63.4972 120.453C63.1012 120.764 63.0326 122.079 62.4412 122.089C61.8499 122.1 61.5278 121.915 61.0051 121.218C60.4823 120.521 55.0651 121.968 54.5054 123.7Z" stroke="#263238" stroke-width="0.75" stroke-linecap="round" stroke-linejoin="round"/>
<path d="M56.4222 124.08C56.5172 124.402 56.4855 124.698 56.3588 124.735C56.2321 124.772 56.0473 124.539 55.9522 124.207C55.8572 123.874 55.8889 123.589 56.0156 123.552C56.1423 123.515 56.3271 123.768 56.4222 124.08Z" fill="#263238" stroke="#263238" stroke-miterlimit="10"/>
<path d="M55.4399 123.182C56.1791 122.971 56.4959 123.526 56.5857 124.038L56.723 124.645L57.1823 126.994L57.8793 126.699" stroke="#263238" stroke-width="0.5" stroke-linecap="round" stroke-linejoin="round"/>
<path d="M58.4495 123.362C58.61 123.186 58.8099 123.05 59.0329 122.966C59.2558 122.881 59.4955 122.851 59.7325 122.876" stroke="#263238" stroke-width="0.5" stroke-linecap="round" stroke-linejoin="round"/>
<path d="M59.0621 121.899C58.7617 121.962 58.4861 122.111 58.2686 122.327C58.0511 122.544 57.9012 122.819 57.8372 123.119" stroke="#263238" stroke-width="0.5" stroke-linecap="round" stroke-linejoin="round"/>
<path d="M58.5076 127.459C58.5076 127.459 60.0388 127.153 60.1602 126.055" stroke="#263238" stroke-width="0.5" stroke-linecap="round" stroke-linejoin="round"/>
<path d="M71.507 145.654L63.7771 143.5C63.7771 143.5 64.4582 130.3 65.6515 128.067C67.5101 124.598 71.771 126.16 72.5736 130.522C73.3233 134.64 71.507 145.654 71.507 145.654Z" fill="#92E3A9" stroke="#263238" stroke-linecap="round" stroke-linejoin="round"/>
<path d="M63.9619 142.032C63.9619 142.032 68.1859 143.004 70.7573 143.849" stroke="#263238" stroke-width="0.5" stroke-linecap="round" stroke-linejoin="round"/>
<path d="M70.6516 125.759C70.6516 125.759 73.1649 125.955 74.807 127.306" stroke="#92E3A9" stroke-width="0.5" stroke-linecap="round" stroke-linejoin="round"/>
<path d="M114.94 159.525C114.94 159.525 103.683 163.495 102.654 164.578C101.624 165.66 101.73 169.884 104.158 171.938C106.587 173.992 123.9 169.335 136.277 167.978C148.653 166.621 175.824 164.625 186.912 164.087C198 163.548 203.042 165.011 204.014 161.552C204.985 158.094 204.864 154.398 202.752 153.648C200.64 152.898 162.159 146.737 114.94 159.525Z" fill="#263238" stroke="#263238" stroke-width="0.75" stroke-linecap="round" stroke-linejoin="round"/>
<path d="M101.851 166.885C101.851 166.885 102.379 171.463 105.193 172.165C108.008 172.867 141.451 166.531 161.161 165.829C180.872 165.127 198.121 164.599 198.121 164.599" stroke="white" stroke-width="0.5" stroke-linecap="round" stroke-linejoin="round"/>
<path d="M118.187 169.208C131.261 166.04 158.152 161.563 203.401 162.835" stroke="white" stroke-width="0.5" stroke-linecap="round" stroke-linejoin="round"/>
<path d="M107.469 171.996C107.469 171.996 110.473 171.268 115.041 170.021" stroke="white" stroke-width="0.5" stroke-linecap="round" stroke-linejoin="round"/>
<path d="M110.225 172.519C110.367 174.482 110.314 176.454 110.067 178.406" stroke="white" stroke-width="0.5" stroke-linecap="round" stroke-linejoin="round"/>
<path d="M109.745 88.0864C109.745 88.0864 107.226 91.0379 107.031 93.6832" stroke="#263238" stroke-width="0.75" stroke-linecap="round" stroke-linejoin="round"/>
<path d="M106.767 95.8164C106.767 95.8164 104.871 125.97 109.887 158.062" stroke="#263238" stroke-width="0.75" stroke-linecap="round" stroke-linejoin="round"/>
<path d="M107.364 130.659C107.364 130.659 103.272 132.084 103.219 133.932C103.082 138.901 103.604 149.503 104.687 150.533C105.769 151.562 109.132 148.838 109.132 148.838C109.132 148.838 113.884 149.25 114.412 148.183C114.94 147.117 112.96 132.106 112.665 130.796C112.369 129.487 107.364 130.659 107.364 130.659Z" fill="#92E3A9" stroke="#263238" stroke-linecap="round" stroke-linejoin="round"/>
<path d="M192.836 137.808C193.901 138.328 195.059 138.633 196.242 138.706C194.932 133.785 193.449 128.304 191.918 122.834C190.534 122.739 188.749 122.739 188.786 123.362C188.813 124.429 191.5 137.037 192.836 137.808Z" fill="#92E3A9" stroke="#263238" stroke-linecap="round" stroke-linejoin="round"/>
<path d="M106.777 132.211C106.777 132.211 106.957 141.715 107.659 145.411" stroke="#263238" stroke-width="0.75" stroke-linecap="round" stroke-linejoin="round"/>
<path d="M156.135 134.408C156.135 134.408 179.694 130.611 207.145 135.464" stroke="#263238" stroke-linecap="round" stroke-linejoin="round"/>
<path d="M227.858 149.292C229.479 149.778 231.074 150.29 232.61 150.839" stroke="#263238" stroke-linecap="round" stroke-linejoin="round"/>
<path d="M185.56 142.122C185.56 142.122 204.241 143.257 222.13 147.729" stroke="#263238" stroke-linecap="round" stroke-linejoin="round"/>
<path d="M128.705 185.624C144.087 183.273 159.714 182.994 175.169 184.795" stroke="#263238" stroke-linecap="round" stroke-linejoin="round"/>
<path d="M126.773 183.137C126.773 183.137 137.829 181.754 141.425 181.479" stroke="#263238" stroke-linecap="round" stroke-linejoin="round"/>
<path d="M200.819 80.5889C202.403 80.8159 203.987 81.1169 205.423 81.4601" stroke="#263238" stroke-linecap="round" stroke-linejoin="round"/>
<path d="M178.057 80.066C184.563 79.6064 191.095 79.6505 197.593 80.198" stroke="#263238" stroke-linecap="round" stroke-linejoin="round"/>
<path d="M92.8699 144.028C92.8699 144.028 108.647 136.557 131.472 134.482" stroke="#263238" stroke-linecap="round" stroke-linejoin="round"/>
<path d="M119.439 130.326C119.439 130.326 128.99 127.84 143.521 127.005" stroke="#263238" stroke-linecap="round" stroke-linejoin="round"/>
<path d="M92.6111 183.079C94.5284 186.513 97.6226 189.139 101.323 190.471" stroke="#263238" stroke-linecap="round" stroke-linejoin="round"/>
<path d="M92.0833 185.455C92.0833 185.455 94.4593 189.151 97.6273 190.735" stroke="#263238" stroke-linecap="round" stroke-linejoin="round"/>
<path d="M169.963 172.255C169.963 172.255 171.547 179.647 177.883 182.815" stroke="#263238" stroke-linecap="round" stroke-linejoin="round"/>
<path d="M170.755 178.855C172.011 180.694 173.745 182.155 175.771 183.079" stroke="#263238" stroke-linecap="round" stroke-linejoin="round"/>
<path d="M66.2957 193.09C66.2957 193.09 67.8797 195.73 73.4237 195.73" stroke="#263238" stroke-linecap="round" stroke-linejoin="round"/>
<path d="M65.2395 194.674C67.2593 196.354 69.7489 197.368 72.3675 197.578" stroke="#263238" stroke-linecap="round" stroke-linejoin="round"/>
<path d="M136.615 188.158C122.592 188.921 108.672 191.003 95.04 194.378L95.3674 194.869C95.3674 194.869 106.983 192.403 128.452 197.683C149.92 202.963 151.335 207.187 174.916 207.187C198.496 207.187 221.38 201.559 221.38 201.559L218.518 199.975C197.345 191.014 168.326 186.384 136.615 188.158Z" fill="#92E3A9"/>
<path opacity="0.5" d="M136.615 188.158C122.592 188.921 108.672 191.003 95.04 194.378L95.3674 194.869C95.3674 194.869 106.983 192.403 128.452 197.683C149.92 202.963 151.335 207.187 174.916 207.187C198.496 207.187 221.38 201.559 221.38 201.559L218.518 199.975C197.345 191.014 168.326 186.384 136.615 188.158Z" fill="white"/>
<path d="M84.9551 200.239C84.9551 200.239 112.675 196.015 136.699 212.119" stroke="#263238" stroke-linecap="round" stroke-linejoin="round"/>
<path d="M113.995 206.311C113.995 206.311 125.347 209.743 132.211 217.135" stroke="#263238" stroke-linecap="round" stroke-linejoin="round"/>
<path d="M181.051 192.847C181.051 192.847 197.155 194.431 211.675 203.143" stroke="#263238" stroke-linecap="round" stroke-linejoin="round"/>
<path d="M231.264 206.49C234.164 208.265 236.924 210.258 239.522 212.451" stroke="#263238" stroke-linecap="round" stroke-linejoin="round"/>
<path d="M42.3508 218.946C61.5964 202.578 96.3705 190.434 136.615 188.158C173.348 186.072 206.48 192.651 227.959 204.526" stroke="#263238" stroke-linecap="round" stroke-linejoin="round"/>
<path d="M159.667 192.583C159.667 192.583 176.299 193.375 187.387 197.071" stroke="#263238" stroke-linecap="round" stroke-linejoin="round"/>
<path d="M84.2585 67.2356C84.2585 67.2356 83.7305 59.9333 73.0385 59.6693C62.3465 59.4053 65.2082 66.9768 62.3412 68.8037C59.4741 70.6306 58.6874 67.7477 55.8151 69.5852C52.9428 71.4226 54.2311 75.0658 51.9026 75.5885C49.5741 76.1112 46.422 73.2389 43.5549 75.0605C40.6879 76.8821 40.6826 78.4503 39.3785 78.4503C38.0743 78.4503 35.466 77.3943 33.9031 78.4503C32.3402 79.5063 30.5081 80.784 30.5081 80.784H96.5081C96.5081 80.784 97.2895 78.4344 94.3961 76.8716C91.5026 75.3087 90.2196 76.6076 89.1794 75.2876C88.1393 73.9676 92.0834 70.6306 84.2585 67.2356Z" fill="#92E3A9"/>
<path d="M123.473 39.2883C123.473 39.2883 123.156 34.8953 116.725 34.7369C110.294 34.5785 112.015 39.1352 110.289 40.2334C108.562 41.3317 108.092 39.6051 106.366 40.7033C104.639 41.8016 105.426 43.9981 104.011 44.3096C102.596 44.6211 100.716 42.8998 98.9896 43.9981C97.2631 45.0963 97.2631 46.0361 96.4764 46.0361C95.6896 46.0361 94.1215 45.4131 93.1816 46.0361C92.2418 46.6592 91.1436 47.4512 91.1436 47.4512H130.849C130.849 47.4512 131.319 46.0361 129.593 45.0963C127.866 44.1565 127.085 44.9379 126.456 44.1565C125.828 43.375 128.183 41.3317 123.473 39.2883Z" fill="#92E3A9"/>
<path opacity="0.7" d="M84.2585 67.2356C84.2585 67.2356 83.7305 59.9333 73.0385 59.6693C62.3465 59.4053 65.2082 66.9768 62.3412 68.8037C59.4741 70.6306 58.6874 67.7477 55.8151 69.5852C52.9428 71.4226 54.2311 75.0658 51.9026 75.5885C49.5741 76.1112 46.422 73.2389 43.5549 75.0605C40.6879 76.8821 40.6826 78.4503 39.3785 78.4503C38.0743 78.4503 35.466 77.3943 33.9031 78.4503C32.3402 79.5063 30.5081 80.784 30.5081 80.784H96.5081C96.5081 80.784 97.2895 78.4344 94.3961 76.8716C91.5026 75.3087 90.2196 76.6076 89.1794 75.2876C88.1393 73.9676 92.0834 70.6306 84.2585 67.2356Z" fill="white"/>
<path opacity="0.8" d="M123.473 39.2883C123.473 39.2883 123.156 34.8953 116.725 34.7369C110.294 34.5785 112.015 39.1352 110.289 40.2334C108.562 41.3317 108.092 39.6051 106.366 40.7033C104.639 41.8016 105.426 43.9981 104.011 44.3096C102.596 44.6211 100.716 42.8998 98.9896 43.9981C97.2631 45.0963 97.2631 46.0361 96.4764 46.0361C95.6896 46.0361 94.1215 45.4131 93.1816 46.0361C92.2418 46.6592 91.1436 47.4512 91.1436 47.4512H130.849C130.849 47.4512 131.319 46.0361 129.593 45.0963C127.866 44.1565 127.085 44.9379 126.456 44.1565C125.828 43.375 128.183 41.3317 123.473 39.2883Z" fill="white"/>
</svg>
