<svg width="260" height="244" viewBox="0 0 260 244" fill="none" xmlns="http://www.w3.org/2000/svg">
<g opacity="0.8">
<path d="M32.3502 187.972H16.0861C15.9881 187.972 15.8941 187.933 15.8248 187.864C15.7554 187.795 15.7165 187.7 15.7165 187.602V162.689H10.889C10.8196 162.69 10.7513 162.671 10.6923 162.634C10.6333 162.598 10.5861 162.545 10.5564 162.482C10.5205 162.423 10.5015 162.355 10.5015 162.286C10.5015 162.217 10.5205 162.149 10.5564 162.09L23.8633 145.294C23.8987 145.252 23.9428 145.218 23.9926 145.195C24.0424 145.172 24.0967 145.16 24.1516 145.16C24.2066 145.16 24.2608 145.172 24.3106 145.195C24.3604 145.218 24.4046 145.252 24.4399 145.294L37.7469 162.09C37.7899 162.144 37.8167 162.21 37.8243 162.279C37.8319 162.348 37.82 162.417 37.7899 162.48C37.7599 162.542 37.7129 162.595 37.6543 162.632C37.5957 162.669 37.5279 162.689 37.4586 162.689H32.6089V187.602C32.6127 187.684 32.5893 187.764 32.5425 187.831C32.4957 187.898 32.4281 187.948 32.3502 187.972ZM16.4706 187.233H31.9953V162.319C31.9953 162.221 32.0343 162.127 32.1036 162.058C32.1729 161.989 32.2669 161.95 32.365 161.95H36.8006L24.233 146.122L11.6653 161.95H16.1009C16.199 161.95 16.293 161.989 16.3623 162.058C16.4316 162.127 16.4706 162.221 16.4706 162.319V187.233Z" fill="#92E3A9"/>
<path d="M195.612 187.972H179.348C179.25 187.972 179.156 187.933 179.086 187.864C179.017 187.795 178.978 187.7 178.978 187.602V162.689H174.128C174.059 162.689 173.991 162.669 173.933 162.632C173.874 162.595 173.827 162.542 173.797 162.48C173.767 162.417 173.755 162.348 173.763 162.279C173.77 162.21 173.797 162.144 173.84 162.09L187.184 145.294C187.219 145.252 187.264 145.218 187.313 145.195C187.363 145.172 187.417 145.16 187.472 145.16C187.527 145.16 187.582 145.172 187.631 145.195C187.681 145.218 187.725 145.252 187.761 145.294L201.105 162.09C201.148 162.144 201.174 162.21 201.182 162.279C201.19 162.348 201.178 162.417 201.148 162.48C201.118 162.542 201.071 162.595 201.012 162.632C200.953 162.669 200.886 162.689 200.816 162.689H195.967V187.602C195.967 187.698 195.93 187.79 195.864 187.859C195.797 187.928 195.707 187.968 195.612 187.972ZM179.732 187.233H195.257V162.319C195.257 162.221 195.296 162.127 195.365 162.058C195.435 161.989 195.529 161.95 195.627 161.95H200.062L187.495 146.122L174.927 161.95H179.363C179.461 161.95 179.555 161.989 179.624 162.058C179.693 162.127 179.732 162.221 179.732 162.319V187.233Z" fill="#92E3A9"/>
<path d="M236.804 229.334H220.54C220.442 229.334 220.348 229.295 220.279 229.226C220.209 229.157 220.17 229.063 220.17 228.965V204.051H215.343C215.274 204.051 215.206 204.031 215.147 203.994C215.089 203.957 215.042 203.904 215.012 203.842C214.982 203.779 214.97 203.71 214.977 203.641C214.985 203.572 215.012 203.507 215.055 203.452L228.362 186.663C228.397 186.621 228.441 186.588 228.491 186.564C228.541 186.541 228.595 186.529 228.65 186.529C228.705 186.529 228.759 186.541 228.809 186.564C228.859 186.588 228.903 186.621 228.938 186.663L242.245 203.452C242.288 203.507 242.315 203.572 242.323 203.641C242.33 203.71 242.318 203.779 242.288 203.842C242.258 203.904 242.211 203.957 242.153 203.994C242.094 204.031 242.026 204.051 241.957 204.051H237.107V228.965C237.109 229.052 237.079 229.137 237.024 229.205C236.968 229.273 236.89 229.319 236.804 229.334ZM220.932 228.595H236.457V203.681C236.457 203.583 236.496 203.489 236.565 203.42C236.634 203.351 236.728 203.312 236.826 203.312H241.262L228.694 187.484L216.127 203.312H220.562C220.66 203.314 220.753 203.353 220.822 203.422C220.891 203.491 220.93 203.584 220.932 203.681V228.595Z" fill="#92E3A9"/>
<path d="M219.926 132.726H203.662C203.564 132.726 203.47 132.687 203.401 132.618C203.332 132.548 203.293 132.454 203.293 132.356V107.443H198.443C198.373 107.443 198.304 107.423 198.245 107.385C198.186 107.347 198.139 107.292 198.11 107.228C198.081 107.165 198.07 107.095 198.077 107.026C198.085 106.957 198.112 106.891 198.155 106.836L211.462 90.0475C211.498 90.0053 211.543 89.9715 211.593 89.9483C211.643 89.9251 211.698 89.9131 211.754 89.9131C211.809 89.9131 211.864 89.9251 211.915 89.9483C211.965 89.9715 212.01 90.0053 212.046 90.0475L225.353 106.836C225.395 106.892 225.421 106.957 225.428 107.026C225.436 107.095 225.424 107.165 225.394 107.228C225.364 107.29 225.318 107.344 225.259 107.382C225.201 107.419 225.134 107.441 225.064 107.443H220.215V132.356C220.217 132.442 220.189 132.525 220.137 132.593C220.084 132.66 220.01 132.707 219.926 132.726ZM204.054 131.987H219.579V107.073C219.579 106.975 219.618 106.881 219.687 106.812C219.757 106.742 219.851 106.703 219.949 106.703H224.384L211.817 90.8681L199.249 106.703H203.685C203.783 106.703 203.877 106.742 203.946 106.812C204.015 106.881 204.054 106.975 204.054 107.073V131.987Z" fill="#92E3A9"/>
<path d="M66.2755 135.631H50.0115C49.9134 135.631 49.8194 135.592 49.7501 135.523C49.6808 135.454 49.6418 135.36 49.6418 135.262V110.348H44.7996C44.7296 110.349 44.6608 110.33 44.6012 110.294C44.5415 110.257 44.4934 110.205 44.4624 110.142C44.4314 110.079 44.4189 110.009 44.4262 109.94C44.4336 109.87 44.4605 109.804 44.5039 109.749L57.8478 92.9529C57.8832 92.9109 57.9273 92.8772 57.9771 92.854C58.0269 92.8308 58.0812 92.8188 58.1361 92.8188C58.191 92.8188 58.2453 92.8308 58.2951 92.854C58.3449 92.8772 58.389 92.9109 58.4244 92.9529L71.7683 109.749C71.8113 109.804 71.8381 109.869 71.8457 109.938C71.8533 110.007 71.8414 110.076 71.8114 110.139C71.7813 110.201 71.7343 110.254 71.6757 110.291C71.6171 110.328 71.5493 110.348 71.48 110.348H66.6304V135.262C66.6304 135.357 66.5935 135.449 66.5274 135.518C66.4612 135.587 66.371 135.627 66.2755 135.631ZM50.3959 134.892H65.9206V109.978C65.9206 109.88 65.9596 109.786 66.0289 109.717C66.0982 109.648 66.1923 109.609 66.2903 109.609H70.7259L58.1583 93.7809L45.5906 109.609H50.0262C50.1243 109.609 50.2183 109.648 50.2876 109.717C50.3569 109.786 50.3959 109.88 50.3959 109.978V134.892Z" fill="#92E3A9"/>
<path d="M92.1501 229.334H75.8861C75.788 229.334 75.694 229.295 75.6247 229.226C75.5554 229.157 75.5164 229.063 75.5164 228.965V204.051H70.6668C70.5975 204.051 70.5297 204.031 70.4711 203.994C70.4125 203.957 70.3655 203.904 70.3354 203.842C70.3054 203.779 70.2935 203.71 70.3011 203.641C70.3087 203.572 70.3355 203.507 70.3785 203.452L83.7224 186.663C83.7578 186.621 83.8019 186.588 83.8517 186.564C83.9015 186.541 83.9558 186.529 84.0107 186.529C84.0656 186.529 84.1199 186.541 84.1697 186.564C84.2195 186.588 84.2636 186.621 84.299 186.663L97.6429 203.452C97.6863 203.507 97.7132 203.573 97.7205 203.643C97.7279 203.712 97.7153 203.783 97.6844 203.845C97.6534 203.908 97.6053 203.961 97.5456 203.997C97.4859 204.033 97.4171 204.052 97.3472 204.051H92.505V228.965C92.505 229.06 92.4681 229.152 92.402 229.221C92.3358 229.29 92.2456 229.331 92.1501 229.334ZM76.2705 228.595H91.7953V203.681C91.7953 203.583 91.8342 203.489 91.9035 203.42C91.9728 203.351 92.0669 203.312 92.1649 203.312H96.6005L84.0329 187.484L71.4652 203.312H75.9008C75.9989 203.312 76.0929 203.351 76.1622 203.42C76.2315 203.489 76.2705 203.583 76.2705 203.681V228.595Z" fill="#92E3A9"/>
<path d="M180.205 55.8646C181.217 50.4777 180.615 44.9121 178.476 39.8657C176.337 34.8193 172.756 30.5167 168.181 27.4976C163.607 24.4784 158.243 22.8771 152.762 22.8944C147.281 22.9116 141.927 24.5468 137.372 27.5947C134.063 19.552 128.066 12.9069 120.403 8.79358C112.741 4.68024 103.889 3.35364 95.3571 5.04022C86.8256 6.7268 79.1439 11.322 73.6231 18.0415C68.1023 24.761 65.0846 33.1883 65.0852 41.8849C65.0852 42.3506 65.0852 42.809 65.0852 43.2673C59.6916 44.8045 54.9905 48.1493 51.7702 52.7409C48.5498 57.3325 47.006 62.8918 47.3977 68.4864C47.7894 74.0811 50.0928 79.371 53.9215 83.4691C57.7502 87.5672 62.8716 90.2243 68.4267 90.9949V91.2537H179.008C183.5 91.0978 187.766 89.2424 190.944 86.0624C194.121 82.8824 195.973 78.6148 196.125 74.1219C196.277 69.6291 194.718 65.2461 191.763 61.8584C188.808 58.4708 184.677 56.3312 180.205 55.8719V55.8646Z" fill="#263238" stroke="#263238" stroke-linecap="round" stroke-linejoin="round"/>
<path d="M180.205 52.5374C181.217 47.1505 180.615 41.5849 178.476 36.5385C176.337 31.4921 172.756 27.1896 168.181 24.1704C163.607 21.1513 158.243 19.5499 152.762 19.5672C147.281 19.5845 141.927 21.2196 137.372 24.2675C134.063 16.2255 128.067 9.58072 120.405 5.4673C112.743 1.35388 103.892 0.0267385 95.3607 1.71236C86.8297 3.39797 79.148 7.99188 73.6266 14.7101C68.1052 21.4283 65.0864 29.8543 65.0852 38.5503C65.0852 39.0161 65.0852 39.4744 65.0852 39.9328C59.6916 41.4699 54.9905 44.8147 51.7702 49.4063C48.5498 53.998 47.006 59.5572 47.3977 65.1519C47.7894 70.7466 50.0928 76.0365 53.9215 80.1346C57.7502 84.2327 62.8716 86.8898 68.4267 87.6604V87.9191H179.008C183.5 87.7633 187.766 85.9079 190.944 82.7279C194.121 79.5478 195.973 75.2802 196.125 70.7874C196.277 66.2946 194.718 61.9115 191.763 58.5239C188.808 55.1363 184.677 52.9967 180.205 52.5374Z" fill="#92E3A9" stroke="#263238" stroke-linecap="round" stroke-linejoin="round"/>
<path d="M144.321 73.9396L124.849 49.4326L105.384 73.9396H112.998V110.837H136.707V73.9396H144.321Z" fill="#263238" stroke="#263238" stroke-linecap="round" stroke-linejoin="round"/>
<path d="M144.321 72.3502L124.849 47.8433L105.384 72.3502H112.998V109.247H136.707V72.3502H144.321Z" fill="white" stroke="#263238" stroke-linecap="round" stroke-linejoin="round"/>
<path d="M133.02 129.701C133.19 129.237 133.497 128.835 133.9 128.548C134.303 128.262 134.783 128.104 135.278 128.096H150.709C150.976 128.086 151.241 128.134 151.487 128.238C151.733 128.342 151.953 128.499 152.132 128.697C152.31 128.895 152.443 129.13 152.521 129.385C152.599 129.64 152.62 129.909 152.583 130.174L148.596 163.622C148.512 164.192 148.227 164.712 147.794 165.091C147.361 165.47 146.807 165.683 146.231 165.691H97.2659C97.0002 165.701 96.7354 165.653 96.4903 165.549C96.2452 165.446 96.0257 165.29 95.8473 165.093C95.6689 164.896 95.5358 164.662 95.4575 164.408C95.3792 164.154 95.3576 163.886 95.3941 163.622L98.7368 135.519C98.8214 134.95 99.1058 134.429 99.5392 134.05C99.9725 133.671 100.527 133.459 101.102 133.451H127.748C128.902 133.431 130.024 133.062 130.965 132.393C131.906 131.724 132.622 130.786 133.02 129.701Z" fill="#263238"/>
<path d="M96.2751 164.151H147.44L150.355 129.725H99.1918L96.2751 164.151Z" fill="#F0F0F0"/>
<path d="M96.2751 164.151H147.44L149.549 129.725H99.1918L96.2751 164.151Z" fill="#E0E0E0"/>
<path d="M96.2751 164.15H147.44L149.198 128.631H98.0352L96.2751 164.15Z" fill="#F0F0F0"/>
<path d="M96.2751 164.15H147.44L148.136 128.631H98.0352L96.2751 164.15Z" fill="#E0E0E0"/>
<path d="M96.2751 164.15H147.44L147.744 127.667H96.5817L96.2751 164.15Z" fill="#F0F0F0"/>
<path d="M96.2751 164.151H147.44L146.389 128.358H95.556L96.2751 164.151Z" fill="#E0E0E0"/>
<path d="M96.2751 164.15H147.44L145.921 128.631H94.7579L96.2751 164.15Z" fill="#F0F0F0"/>
<path d="M96.2751 164.15H147.44L145.02 129.167H93.8577L96.2751 164.15Z" fill="#E0E0E0"/>
<path d="M96.2751 164.15H147.44L144.635 129.466H93.4722L96.2751 164.15Z" fill="#F0F0F0"/>
<path d="M121.897 131.874C121.9 131.65 121.948 131.429 122.038 131.224C122.128 131.02 122.258 130.835 122.421 130.682C122.583 130.528 122.775 130.409 122.985 130.331C123.195 130.254 123.418 130.219 123.642 130.229H139.073C139.671 130.252 140.244 130.473 140.702 130.857C141.161 131.241 141.479 131.766 141.606 132.35L147.704 163.58C147.931 164.75 147.168 165.7 145.998 165.7H97.0327C95.8607 165.7 94.7194 164.75 94.4977 163.58L89.4682 137.834C89.2407 136.664 90.0041 135.714 91.1743 135.714H117.822C120.135 135.714 121.818 134.121 121.897 131.874Z" fill="#92E3A9" stroke="#263238"/>
</g>
</svg>
