<svg width="75" height="75" viewBox="0 0 75 75" fill="none" xmlns="http://www.w3.org/2000/svg">
<path d="M46.875 65.6246H28.125L24.2813 40.6246C23.5348 35.7749 23.9407 30.8176 25.4663 26.154C26.9918 21.4905 29.5942 17.2517 33.0625 13.7808L35.2813 11.5621C35.5718 11.2692 35.9174 11.0367 36.2982 10.878C36.679 10.7194 37.0875 10.6377 37.5 10.6377C37.9126 10.6377 38.321 10.7194 38.7018 10.878C39.0827 11.0367 39.4283 11.2692 39.7188 11.5621L41.9375 13.7808C45.4059 17.2517 48.0082 21.4905 49.5338 26.154C51.0594 30.8176 51.4653 35.7749 50.7188 40.6246L46.875 65.6246Z" stroke="#5C5C5C" stroke-width="4" stroke-linecap="round" stroke-linejoin="round"/>
<path d="M28.125 65.625H15.625L18.1562 55.4688C18.532 53.9597 19.4568 52.6449 20.75 51.7812L25.5 48.6562" stroke="#5C5C5C" stroke-width="4" stroke-linecap="round" stroke-linejoin="round"/>
<path d="M49.5 48.625L54.25 51.75C55.5432 52.6137 56.468 53.9284 56.8438 55.4375L59.375 65.625H46.875" stroke="#5C5C5C" stroke-width="4" stroke-linecap="round" stroke-linejoin="round"/>
<path d="M37.5 31.25V40.625" stroke="#5C5C5C" stroke-width="4" stroke-linecap="round" stroke-linejoin="round"/>
</svg>
