<svg width="75" height="75" viewBox="0 0 75 75" fill="none" xmlns="http://www.w3.org/2000/svg">
<path d="M65.625 12.5V50C65.625 50.8288 65.2958 51.6237 64.7097 52.2097C64.1237 52.7958 63.3288 53.125 62.5 53.125H50L37.5 65.625L25 53.125H12.5C11.6712 53.125 10.8763 52.7958 10.2903 52.2097C9.70424 51.6237 9.375 50.8288 9.375 50V12.5C9.375 11.6712 9.70424 10.8763 10.2903 10.2903C10.8763 9.70424 11.6712 9.375 12.5 9.375H62.5C63.3288 9.375 64.1237 9.70424 64.7097 10.2903C65.2958 10.8763 65.625 11.6712 65.625 12.5Z" stroke="#5C5C5C" stroke-width="4" stroke-linecap="round" stroke-linejoin="round"/>
<path d="M37.5 21.875V25M25 25H50H25ZM31.25 34.375C34.3299 38.734 38.703 42.0138 43.75 43.75L31.25 34.375ZM31.25 43.75C43.75 40.625 43.75 25 43.75 25L31.25 43.75Z" stroke="#5C5C5C" stroke-width="4" stroke-linecap="round" stroke-linejoin="round"/>
</svg>
