<svg width="75" height="75" viewBox="0 0 75 75" fill="none" xmlns="http://www.w3.org/2000/svg">
<path d="M63.5001 44.4687L49.3438 49.1875C41.6554 51.7468 33.3448 51.7468 25.6563 49.1875L11.5001 44.4687C10.8533 44.2513 10.2954 43.8281 9.91171 43.2639C9.52799 42.6996 9.33953 42.0252 9.3751 41.3437V21.875H65.6251V41.5C65.6268 42.1551 65.4225 42.7942 65.0412 43.327C64.6599 43.8597 64.1208 44.2591 63.5001 44.4687Z" stroke="#5C5C5C" stroke-width="4" stroke-linecap="round" stroke-linejoin="round"/>
<path d="M61.9687 44.9688L59.7187 62.875C59.6266 63.6372 59.2572 64.3389 58.6808 64.8461C58.1044 65.3533 57.3615 65.6306 56.5937 65.625H18.375C17.6073 65.6306 16.8643 65.3533 16.288 64.8461C15.7116 64.3389 15.3421 63.6372 15.25 62.875L13 44.9688" stroke="#5C5C5C" stroke-width="4" stroke-linecap="round" stroke-linejoin="round"/>
<path d="M34.375 37.5H40.625" stroke="#5C5C5C" stroke-width="4" stroke-linecap="round" stroke-linejoin="round"/>
<path d="M31.25 9.375H43.75C46.2364 9.375 48.621 10.3627 50.3791 12.1209C52.1373 13.879 53.125 16.2636 53.125 18.75V21.875H21.875V18.75C21.875 16.2636 22.8627 13.879 24.6209 12.1209C26.379 10.3627 28.7636 9.375 31.25 9.375V9.375Z" stroke="#5C5C5C" stroke-width="4" stroke-linecap="round" stroke-linejoin="round"/>
</svg>
