<svg width="75" height="75" viewBox="0 0 75 75" fill="none" xmlns="http://www.w3.org/2000/svg">
<path d="M37.5 65.625C53.033 65.625 65.625 53.033 65.625 37.5C65.625 21.967 53.033 9.375 37.5 9.375C21.967 9.375 9.375 21.967 9.375 37.5C9.375 53.033 21.967 65.625 37.5 65.625Z" stroke="#5C5C5C" stroke-width="4" stroke-linecap="round" stroke-linejoin="round"/>
<path d="M37.5 50C44.4036 50 50 44.4036 50 37.5C50 30.5964 44.4036 25 37.5 25C30.5964 25 25 30.5964 25 37.5C25 44.4036 30.5964 50 37.5 50Z" stroke="#5C5C5C" stroke-width="4" stroke-linecap="round" stroke-linejoin="round"/>
<path d="M29.7812 10.4688L34.0625 25.4687" stroke="#5C5C5C" stroke-width="4" stroke-linecap="round" stroke-linejoin="round"/>
<path d="M45.2187 10.4688L40.9375 25.4687" stroke="#5C5C5C" stroke-width="4" stroke-linecap="round" stroke-linejoin="round"/>
<path d="M10.4688 45.2187L25.4687 40.9375" stroke="#5C5C5C" stroke-width="4" stroke-linecap="round" stroke-linejoin="round"/>
<path d="M10.4688 29.7812L25.4687 34.0625" stroke="#5C5C5C" stroke-width="4" stroke-linecap="round" stroke-linejoin="round"/>
<path d="M45.2187 64.5312L40.9375 49.5312" stroke="#5C5C5C" stroke-width="4" stroke-linecap="round" stroke-linejoin="round"/>
<path d="M29.7812 64.5312L34.0625 49.5312" stroke="#5C5C5C" stroke-width="4" stroke-linecap="round" stroke-linejoin="round"/>
<path d="M64.5312 29.7812L49.5312 34.0625" stroke="#5C5C5C" stroke-width="4" stroke-linecap="round" stroke-linejoin="round"/>
<path d="M64.5312 45.2187L49.5312 40.9375" stroke="#5C5C5C" stroke-width="4" stroke-linecap="round" stroke-linejoin="round"/>
</svg>